<?xml version="1.0" encoding="iso-8859-1"?>
<!-- Generator: Adobe Illustrator 19.0.0, SVG Export Plug-In . SVG Version: 6.00 Build 0)  -->
<svg version="1.1" id="Capa_1" xmlns="http://www.w3.org/2000/svg" xmlns:xlink="http://www.w3.org/1999/xlink" x="0px" y="0px"
	 viewBox="0 0 512 512" style="enable-background:new 0 0 512 512;" xml:space="preserve">
<g>
	<g>
		<rect x="247.467" width="17.067" height="51.2"/>
	</g>
</g>
<g>
	<g>
		<path d="M247.467,256v204.8c0,18.825-15.309,34.133-34.133,34.133c-18.825,0-34.133-15.309-34.133-34.133v-17.067h-17.067V460.8
			c0,28.237,22.963,51.2,51.2,51.2c28.237,0,51.2-22.963,51.2-51.2V256H247.467z"/>
	</g>
</g>
<g>
	<g>
		<path d="M265.216,42.667h-18.432C134.229,42.667,42.667,138.368,42.667,256c0,3.516,2.15,6.665,5.427,7.953
			c1.007,0.393,2.057,0.58,3.106,0.58c2.338,0,4.625-0.956,6.281-2.748c1.161-1.271,2.381-2.475,3.635-3.635
			c11.998-11.034,27.58-16.717,43.853-16.043c16.282,0.683,31.326,7.672,42.351,19.669c1.613,1.758,3.891,2.756,6.281,2.756
			c2.389,0,4.668-0.998,6.281-2.773c0.896-0.973,1.826-1.92,2.773-2.833c11.767-11.238,27.213-17.058,43.477-16.87
			c16.273,0.367,31.428,7.04,42.803,18.944l1.024,1.024c1.596,1.604,3.772,2.5,6.033,2.5c0.051,0,0.111,0,0.179,0
			c2.33-0.051,4.523-1.05,6.101-2.756c1.161-1.263,2.381-2.475,3.627-3.627c12.006-11.034,27.52-16.717,43.861-16.043
			c16.282,0.683,31.326,7.672,42.351,19.669c3.234,3.516,9.335,3.507,12.57,0c1.186-1.297,2.432-2.543,3.738-3.738
			c24.755-22.707,63.377-21.026,86.084,3.738c2.389,2.603,6.135,3.447,9.387,2.185c3.285-1.28,5.444-4.437,5.444-7.953
			C469.333,138.368,377.771,42.667,265.216,42.667z M412.979,225.024c-20.13-0.862-39.441,5.888-54.579,19.081
			c-13.303-11.597-30.02-18.295-47.915-19.046c-20.147-0.828-39.39,5.922-54.511,19.081c-13.713-11.981-31.019-18.722-49.451-19.14
			c-0.597-0.009-1.203-0.017-1.801-0.017c-18.935,0-36.898,6.733-51.123,19.132c-26.086-22.682-64.137-25.318-93.005-6.997
			c9.079-99.396,89.114-177.382,186.189-177.382h18.432c97.05,0,177.075,77.952,186.18,177.323
			C439.996,229.803,426.837,225.621,412.979,225.024z"/>
	</g>
</g>
<g>
</g>
<g>
</g>
<g>
</g>
<g>
</g>
<g>
</g>
<g>
</g>
<g>
</g>
<g>
</g>
<g>
</g>
<g>
</g>
<g>
</g>
<g>
</g>
<g>
</g>
<g>
</g>
<g>
</g>
</svg>
