<?xml version="1.0" encoding="UTF-8" standalone="no"?>
<!-- Generator: Adobe Illustrator 16.0.0, SVG Export Plug-In . SVG Version: 6.00 Build 0)  -->

<svg
   xmlns:dc="http://purl.org/dc/elements/1.1/"
   xmlns:cc="http://creativecommons.org/ns#"
   xmlns:rdf="http://www.w3.org/1999/02/22-rdf-syntax-ns#"
   xmlns:svg="http://www.w3.org/2000/svg"
   xmlns="http://www.w3.org/2000/svg"
   xmlns:xlink="http://www.w3.org/1999/xlink"
   xmlns:sodipodi="http://sodipodi.sourceforge.net/DTD/sodipodi-0.dtd"
   xmlns:inkscape="http://www.inkscape.org/namespaces/inkscape"
   version="1.1"
   id="Слой_1"
   x="0px"
   y="0px"
   width="44"
   height="38"
   viewBox="0 0 43.999999 37.999999"
   enable-background="new 0 0 793.7 841.89"
   xml:space="preserve"
   inkscape:version="0.48.5 r10040"
   sodipodi:docname="logo.svg"><metadata
   id="metadata23"><rdf:RDF><cc:Work
       rdf:about=""><dc:format>image/svg+xml</dc:format><dc:type
         rdf:resource="http://purl.org/dc/dcmitype/StillImage" /></cc:Work></rdf:RDF></metadata><defs
   id="defs21">
	
		
	

		<defs
   id="defs9">
			<path
   id="SVGID_1_"
   d="m 405.627,405.604 c 3.797,0 6.873,15.797 6.873,35.286 h 5.502 c 0,-20.987 -5.541,-38 -12.375,-38 -3.889,0 -7.357,5.112 -9.626,13.108 -2.268,-7.996 -5.736,-13.108 -9.625,-13.108 -6.834,0 -12.375,17.013 -12.375,38 h 5.501 c 0,-19.488 3.078,-35.286 6.874,-35.286 3.798,0 6.876,14.584 6.876,32.572 h 5.499 c -10e-4,-17.988 3.079,-32.572 6.876,-32.572 l 0,0 z"
   inkscape:connector-curvature="0" />
		</defs>
		
		
	</defs><sodipodi:namedview
   pagecolor="#ffffff"
   bordercolor="#666666"
   borderopacity="1"
   objecttolerance="10"
   gridtolerance="10"
   guidetolerance="10"
   inkscape:pageopacity="0"
   inkscape:pageshadow="2"
   inkscape:window-width="1366"
   inkscape:window-height="719"
   id="namedview19"
   showgrid="false"
   fit-margin-top="0"
   fit-margin-left="0"
   fit-margin-right="0"
   fit-margin-bottom="0"
   inkscape:zoom="6.3429549"
   inkscape:cx="31.400702"
   inkscape:cy="24.101547"
   inkscape:window-x="-4"
   inkscape:window-y="-4"
   inkscape:window-maximized="1"
   inkscape:current-layer="Слой_1" />

			<use
   height="841.89001"
   width="793.70001"
   y="0"
   x="0"
   style="overflow:visible;fill:#fec841;fill-opacity:1"
   id="use13"
   overflow="visible"
   xlink:href="#SVGID_1_"
   transform="translate(-374,-402.8911)" />
		
</svg>